<?xml version="1.0" encoding="UTF-8" standalone="no"?>
<!-- Created with Inkscape (http://www.inkscape.org/) -->

<svg
   width="512"
   height="512"
   viewBox="0 0 135.46667 135.46667"
   version="1.1"
   id="svg5"
   inkscape:version="1.4.2 (f4327f4, 2025-05-13)"
   sodipodi:docname="icon_sketch_square.svg"
   inkscape:export-filename="icon_sketch_square.png"
   inkscape:export-xdpi="96"
   inkscape:export-ydpi="96"
   xmlns:inkscape="http://www.inkscape.org/namespaces/inkscape"
   xmlns:sodipodi="http://sodipodi.sourceforge.net/DTD/sodipodi-0.dtd"
   xmlns:xlink="http://www.w3.org/1999/xlink"
   xmlns="http://www.w3.org/2000/svg"
   xmlns:svg="http://www.w3.org/2000/svg">
  <sodipodi:namedview
     id="namedview7"
     pagecolor="#505050"
     bordercolor="#eeeeee"
     borderopacity="1"
     inkscape:showpageshadow="0"
     inkscape:pageopacity="0"
     inkscape:pagecheckerboard="0"
     inkscape:deskcolor="#505050"
     inkscape:document-units="mm"
     showgrid="false"
     inkscape:zoom="2"
     inkscape:cx="53"
     inkscape:cy="414.75"
     inkscape:window-width="4300"
     inkscape:window-height="1771"
     inkscape:window-x="-9"
     inkscape:window-y="-9"
     inkscape:window-maximized="1"
     inkscape:current-layer="layer1"
     showguides="true">
    <sodipodi:guide
       position="-30.823959,143.80105"
       orientation="1,0"
       id="guide1"
       inkscape:locked="false" />
    <sodipodi:guide
       position="157.69167,111.125"
       orientation="1,0"
       id="guide2"
       inkscape:locked="false" />
  </sodipodi:namedview>
  <defs
     id="defs2">
    <clipPath
       clipPathUnits="userSpaceOnUse"
       id="clipPath35">
      <path
         id="path35"
         style="stroke-width:0.1;stroke-linecap:square;paint-order:markers fill stroke;stop-color:#000000"
         d="m -880.82767,-187.29769 h 1640.84 v 73.28155 h -1640.84 z" />
    </clipPath>
    <clipPath
       clipPathUnits="userSpaceOnUse"
       id="clipPath31">
      <path
         id="path31"
         style="stroke-width:0.1;stroke-linecap:square;paint-order:markers fill stroke;stop-color:#000000"
         d="m -880.82767,-187.29769 h 1640.84 v 73.28155 h -1640.84 z" />
    </clipPath>
    <clipPath
       clipPathUnits="userSpaceOnUse"
       id="clipPath52">
      <path
         id="path52"
         style="stroke-width:0.1;stroke-linecap:square;paint-order:markers fill stroke;stop-color:#000000"
         d="m -880.82767,-187.29769 h 1640.84 v 73.28155 h -1640.84 z" />
    </clipPath>
    <linearGradient
       id="linearGradient20">
      <stop
         style="stop-color:#c8bcab;stop-opacity:1;"
         offset="0"
         id="stop17" />
      <stop
         style="stop-color:#c8bcab;stop-opacity:1;"
         offset="0.49499753"
         id="stop18" />
      <stop
         style="stop-color:#9fa9a4;stop-opacity:1;"
         offset="0.49499753"
         id="stop19" />
      <stop
         style="stop-color:#9fa9a4;stop-opacity:1;"
         offset="1"
         id="stop20" />
    </linearGradient>
    <linearGradient
       id="linearGradient15">
      <stop
         style="stop-color:#c8bcab;stop-opacity:1;"
         offset="0"
         id="stop12" />
      <stop
         style="stop-color:#c8bcab;stop-opacity:1;"
         offset="0.49000001"
         id="stop13" />
      <stop
         style="stop-color:#6c8089;stop-opacity:1;"
         offset="0.49499753"
         id="stop14" />
      <stop
         style="stop-color:#6c8089;stop-opacity:1;"
         offset="1"
         id="stop15" />
    </linearGradient>
    <linearGradient
       id="linearGradient11">
      <stop
         style="stop-color:#c8bcab;stop-opacity:1;"
         offset="0"
         id="stop8" />
      <stop
         style="stop-color:#c8bcab;stop-opacity:1;"
         offset="0.49499753"
         id="stop9" />
      <stop
         style="stop-color:#9fa9a4;stop-opacity:1;"
         offset="0.49499753"
         id="stop10" />
      <stop
         style="stop-color:#9fa9a4;stop-opacity:1;"
         offset="1"
         id="stop11" />
    </linearGradient>
    <linearGradient
       id="linearGradient7">
      <stop
         style="stop-color:#b4e6e6;stop-opacity:1;"
         offset="0"
         id="stop4" />
      <stop
         style="stop-color:#64c7ee;stop-opacity:1;"
         offset="0.17411765"
         id="stop5" />
      <stop
         style="stop-color:#7a93f2;stop-opacity:1;"
         offset="0.43571383"
         id="stop6" />
      <stop
         style="stop-color:#dd3b3b;stop-opacity:1;"
         offset="0.86432445"
         id="stop7" />
    </linearGradient>
    <linearGradient
       id="linearGradient10105">
      <stop
         style="stop-color:#b4e6e6;stop-opacity:1;"
         offset="0"
         id="stop15315" />
      <stop
         style="stop-color:#64c7ee;stop-opacity:1;"
         offset="0.17411765"
         id="stop13861" />
      <stop
         style="stop-color:#7a93f2;stop-opacity:1;"
         offset="0.43571383"
         id="stop10111" />
      <stop
         style="stop-color:#3b57dd;stop-opacity:1;"
         offset="0.86432445"
         id="stop10115" />
    </linearGradient>
    <linearGradient
       id="linearGradient14572">
      <stop
         style="stop-color:#c8bcab;stop-opacity:1;"
         offset="0"
         id="stop14564" />
      <stop
         style="stop-color:#c8bcab;stop-opacity:1;"
         offset="0.49000001"
         id="stop14566" />
      <stop
         style="stop-color:#6c8089;stop-opacity:1;"
         offset="0.49499753"
         id="stop14568" />
      <stop
         style="stop-color:#9fa9a4;stop-opacity:1;"
         offset="0.49999505"
         id="stop14570" />
    </linearGradient>
    <linearGradient
       id="linearGradient14142">
      <stop
         style="stop-color:#c8bcab;stop-opacity:1;"
         offset="0"
         id="stop14134" />
      <stop
         style="stop-color:#c8bcab;stop-opacity:1;"
         offset="0.49000001"
         id="stop14136" />
      <stop
         style="stop-color:#6c8089;stop-opacity:1;"
         offset="0.49499753"
         id="stop14562" />
      <stop
         style="stop-color:#596a72;stop-opacity:1;"
         offset="1"
         id="stop14138" />
    </linearGradient>
    <linearGradient
       inkscape:collect="always"
       xlink:href="#linearGradient20"
       id="linearGradient17"
       x1="92.584351"
       y1="113.58841"
       x2="93.741043"
       y2="111.15023"
       gradientUnits="userSpaceOnUse"
       spreadMethod="repeat"
       gradientTransform="translate(0.00568171,0.00130762)" />
    <linearGradient
       inkscape:collect="always"
       xlink:href="#linearGradient15"
       id="linearGradient85"
       x1="29.845589"
       y1="104.17561"
       x2="30.988789"
       y2="101.76587"
       gradientUnits="userSpaceOnUse"
       spreadMethod="repeat" />
  </defs>
  <g
     inkscape:label="Ebene 1"
     inkscape:groupmode="layer"
     id="layer1">
    <rect
       style="fill:#c8bcab;fill-opacity:1;fill-rule:nonzero;stroke-width:0.2;stroke-linecap:round;stroke-linejoin:round;stroke-opacity:0.202073"
       id="rect1708-9"
       width="135.46666"
       height="135.46666"
       x="0"
       y="-4.4408921e-16" />
    <path
       id="rect1708-0"
       style="fill:#c9deed;fill-opacity:0;fill-rule:nonzero;stroke-width:0.5;stroke-linecap:round;stroke-linejoin:round;stroke-opacity:1;stroke:#14344a;stroke-dasharray:1, 1, 2, 1, 2.5, 1, 1.5, 1, 0.5, 1, 1.5, 1, 3.5, 1, 1, 1, 3, 1, 3, 1, 4, 1, 2.5, 1, 4.5, 1, 0.5, 1, 0.5, 1;stroke-dashoffset:0"
       d="M 87.907812 12.435417 A 13.890625 14.055989 0 0 0 77.915658 16.727661 A 4.960937 4.0348959 0 0 0 75.207812 16.073437 A 4.960937 4.0348959 0 0 0 70.246875 20.108333 A 4.960937 4.0348959 0 0 0 70.584839 21.572327 A 15.378906 15.246614 0 0 0 65.29989 20.643701 A 15.378906 15.246614 0 0 0 59.642871 21.71237 A 14.552083 15.213542 0 0 0 46.500521 13.030729 A 14.552083 15.213542 0 0 0 31.948437 28.244271 A 14.552083 15.213542 0 0 0 38.062793 40.63938 A 16.205729 13.956771 0 0 0 34.991146 48.815625 A 16.205729 13.956771 0 0 0 43.470215 61.084127 A 16.668749 6.647656 0 0 0 37.703125 66.11276 A 16.668749 6.647656 0 0 0 37.927917 67.201066 A 14.783593 12.303124 0 0 0 26.855208 79.110417 A 14.783593 12.303124 0 0 0 27.873751 83.598515 A 16.070114 16.77915 0 0 0 21.933028 96.62511 A 16.070114 16.77915 0 0 0 27.640173 109.44913 A 11.145573 11.773958 0 0 0 25.440824 112.25723 A 13.559896 11.773958 0 0 0 13.858069 118.65994 A 16.945322 12.335224 0 0 0 6.1572469 117.31274 A 16.945322 12.335224 0 0 0 0 118.1561 L 0 135.46667 L 135.46667 135.46667 L 135.46667 125.62489 A 11.145573 11.773958 0 0 0 127.38137 121.95483 A 11.145573 11.773958 0 0 0 123.49892 122.69174 A 11.145573 11.773958 0 0 0 112.35335 110.9276 A 11.145573 11.773958 0 0 0 107.28751 112.21382 A 16.945322 13.738389 0 0 0 93.201029 106.11187 A 16.945322 13.738389 0 0 0 91.777861 106.16045 A 9.447422 5.4517255 0 0 0 88.567721 104.75278 A 9.447422 5.4517255 0 0 0 90.61049 101.5969 A 10.302867 11.046354 0 0 0 98.658061 90.818229 A 10.302867 11.046354 0 0 0 91.604744 80.335665 A 13.614609 7.7668295 0 0 0 94.559603 75.735946 A 9.0289059 7.6067705 0 0 0 100.60936 71.681413 A 13.49375 7.2429686 0 0 0 106.82552 72.495833 A 13.49375 7.2429686 0 0 0 120.31927 65.252865 A 13.49375 7.2429686 0 0 0 114.75889 59.393791 A 10.252604 9.5249996 0 0 0 119.7901 51.196875 A 10.252604 9.5249996 0 0 0 109.5375 41.671875 A 10.252604 9.5249996 0 0 0 105.74187 42.348836 A 12.303124 12.997656 0 0 0 97.989368 36.1611 A 13.890625 14.055989 0 0 0 101.79844 26.491406 A 13.890625 14.055989 0 0 0 87.907812 12.435417 z " />
    <path
       id="rect1708-07"
       style="fill:url(#linearGradient17);fill-rule:nonzero;stroke:#14344a;stroke-width:0.5;stroke-linecap:round;stroke-linejoin:round;stroke-dasharray:1, 1, 2, 1, 2.5, 1, 1.5, 1, 0.5, 1, 1.5, 1, 3.5, 1, 1, 1, 3, 1, 3, 1, 4, 1, 2.5, 1, 4.5, 1, 0.5, 1, 0.5, 1;stroke-dashoffset:0;stroke-opacity:1"
       d="M 85.060441 23.735502 A 14.392865 9.2960758 0 0 0 70.667521 33.031576 A 14.392865 9.2960758 0 0 0 70.836503 34.453711 A 11.212358 8.5477219 0 0 0 60.839181 29.775444 A 11.212358 8.5477219 0 0 0 49.626945 38.323242 A 11.212358 8.5477219 0 0 0 51.604085 43.170492 A 18.041094 17.247345 0 0 0 48.851799 52.327039 A 18.041094 17.247345 0 0 0 51.860917 61.864441 A 15.08125 10.814843 0 0 1 61.562651 53.4448 A 15.64349 10.682551 0 0 1 60.132247 48.98254 A 15.64349 10.682551 0 0 1 75.775736 38.299988 A 15.64349 10.682551 0 0 1 81.357308 39.002787 A 12.244503 12.278548 0 0 0 71.335181 50.374703 A 12.244503 12.278548 0 0 0 61.519242 62.409111 A 12.244503 12.278548 0 0 0 66.318949 72.157353 A 12.244503 12.278548 0 0 0 65.094218 76.946724 A 14.068618 14.47684 0 0 0 56.251864 90.387764 A 14.068618 14.47684 0 0 0 57.887939 97.163578 A 13.381875 13.137235 0 0 1 64.253959 95.582279 A 13.381875 13.137235 0 0 1 65.200671 95.640674 A 13.381875 13.137235 0 0 0 64.591923 95.584863 A 10.240685 9.6373472 0 0 1 64.485986 94.203035 A 10.240685 9.6373472 0 0 1 73.770174 84.607756 A 12.906699 11.788867 0 0 1 73.372782 81.70509 A 12.906699 11.788867 0 0 1 78.209696 72.504618 A 18.987082 17.120893 0 0 1 74.173767 61.951257 A 18.987082 17.120893 0 0 1 85.366366 46.339807 A 10.240685 9.6373472 0 0 1 95.492879 38.13669 A 10.240685 9.6373472 0 0 1 104.25875 42.791187 A 10.548314 9.5105524 0 0 0 99.125216 49.166508 A 11.497457 10.596462 0 0 1 109.74007 57.925663 A 13.035348 7.636436 0 0 1 114.85656 59.237211 A 10.548314 9.5105524 0 0 0 117.11843 57.600102 A 10.252604 9.5249996 0 0 0 119.79579 51.198425 A 10.252604 9.5249996 0 0 0 113.221 42.307495 A 5.8302946 4.654686 0 0 0 107.43789 38.244694 A 5.8302946 4.654686 0 0 0 103.57921 39.409481 A 12.303124 12.997656 0 0 0 98.525769 36.314062 A 14.392865 9.2960758 0 0 0 99.452844 33.031576 A 14.392865 9.2960758 0 0 0 85.060441 23.735502 z M 117.10448 57.615605 A 10.252604 9.5249996 0 0 1 116.24562 58.387651 A 10.252604 9.5249996 0 0 0 117.10448 57.615605 z M 116.10402 58.50909 A 10.252604 9.5249996 0 0 1 114.95887 59.281136 A 13.035348 7.636436 0 0 1 114.96301 59.283203 A 10.252604 9.5249996 0 0 0 116.10402 58.50909 z M 118.7018 61.833435 A 13.49375 7.2429686 0 0 1 119.3245 62.523832 A 13.49375 7.2429686 0 0 0 118.7018 61.833435 z M 119.3245 62.523832 A 13.49375 7.2429686 0 0 1 120.31927 65.252865 A 13.49375 7.2429686 0 0 1 120.03402 66.730294 A 13.49375 7.2429686 0 0 0 120.32496 65.254415 A 13.49375 7.2429686 0 0 0 119.3245 62.523832 z M 54.409599 69.821061 A 16.825018 14.066837 0 0 0 46.510856 81.744881 A 16.825018 14.066837 0 0 0 46.527909 82.3743 A 12.241345 7.051012 0 0 0 39.105623 88.856075 A 12.241345 7.051012 0 0 0 41.4538 93.008276 A 14.06546 9.4831648 0 0 0 28.122831 102.4785 A 14.06546 9.4831648 0 0 0 34.126599 110.2496 A 17.666918 12.757216 0 0 0 32.707048 115.25963 A 17.666918 12.757216 0 0 0 32.865177 116.96185 A 15.432396 13.004944 0 0 1 38.846724 115.03432 A 17.490372 11.040512 0 0 1 38.846724 115.00022 A 17.490372 11.040512 0 0 1 44.367318 106.95006 A 8.1359377 7.6729164 0 0 1 43.820064 104.18382 A 8.1359377 7.6729164 0 0 1 50.871313 96.579118 A 14.403408 14.080704 0 0 1 50.330261 92.756095 A 14.403408 14.080704 0 0 1 56.470972 81.222432 A 8.1359377 7.6729164 0 0 1 54.9429 76.745703 A 8.1359377 7.6729164 0 0 1 56.877665 71.778564 A 15.08125 10.814843 0 0 1 54.409599 69.821061 z M 100.44607 71.94858 A 9.0289059 7.6067705 0 0 1 94.559603 75.735946 A 13.614609 7.7668295 0 0 1 91.604744 80.335665 A 10.302867 11.046354 0 0 1 91.624898 80.343416 A 10.302867 11.046354 0 0 0 91.610429 80.337215 A 13.614609 7.7668295 0 0 0 94.565287 75.737496 A 9.0289059 7.6067705 0 0 0 100.45123 71.95013 A 13.035348 7.636436 0 0 1 100.44607 71.94858 z M 89.610034 80.124308 A 9.0182819 10.584376 0 0 0 80.59198 90.708675 A 9.0182819 10.584376 0 0 0 83.752511 98.756246 A 10.240685 9.6373472 0 0 1 82.206352 100.78558 A 7.9956212 6.45684 0 0 1 85.242859 105.18996 A 10.240685 9.6373472 0 0 1 85.355514 105.18944 A 10.240685 9.6373472 0 0 1 95.560575 114.0287 A 19.467291 18.891924 0 0 1 97.13774 115.35213 A 16.668751 15.941145 0 0 0 93.800476 115.02915 A 16.668751 15.941145 0 0 0 86.510999 116.63422 A 11.939323 12.270052 0 0 0 74.915841 107.29009 A 11.939323 12.270052 0 0 0 62.976518 119.56014 A 11.939323 12.270052 0 0 0 63.015275 120.5513 A 14.948958 14.915885 0 0 0 56.891101 132.59087 A 14.948958 14.915885 0 0 0 57.171704 135.46822 L 109.79175 135.46822 L 135.47235 135.46822 L 135.47235 125.62644 A 11.145573 11.773958 0 0 0 127.38706 121.95638 A 11.145573 11.773958 0 0 0 123.50461 122.69329 A 11.145573 11.773958 0 0 0 112.35903 110.92915 A 11.145573 11.773958 0 0 0 107.29319 112.21537 A 16.945322 13.738389 0 0 0 93.206714 106.11342 A 16.945322 13.738389 0 0 0 91.783545 106.162 A 9.447422 5.4517255 0 0 0 88.573405 104.75433 A 9.447422 5.4517255 0 0 0 90.616174 101.59845 A 10.302867 11.046354 0 0 0 98.663745 90.819779 A 10.302867 11.046354 0 0 0 92.021773 80.518599 A 9.0182819 10.584376 0 0 0 89.610034 80.124308 z M 66.171155 95.730074 A 13.381875 13.137235 0 0 1 66.927181 95.872701 A 13.381875 13.137235 0 0 0 66.171155 95.730074 z M 67.889913 96.092326 A 13.381875 13.137235 0 0 1 68.6139 96.324353 A 13.381875 13.137235 0 0 0 67.889913 96.092326 z M 69.552861 96.675753 A 13.381875 13.137235 0 0 1 70.227755 96.989429 A 13.381875 13.137235 0 0 0 69.552861 96.675753 z M 71.11814 97.466402 A 13.381875 13.137235 0 0 1 71.73619 97.853975 A 13.381875 13.137235 0 0 0 71.11814 97.466402 z M 72.576965 98.46169 A 13.381875 13.137235 0 0 1 73.117501 98.904041 A 13.381875 13.137235 0 0 0 72.576965 98.46169 z M 73.891097 99.64043 A 13.381875 13.137235 0 0 1 74.394942 100.17115 A 13.381875 13.137235 0 0 0 74.192887 99.927751 A 13.381875 13.137235 0 0 0 73.891097 99.64043 z M 74.799569 100.65897 A 13.381875 13.137235 0 0 1 75.339071 101.39536 A 13.381875 13.137235 0 0 0 74.799569 100.65897 z M 75.683236 101.90696 A 13.381875 13.137235 0 0 1 76.231006 102.8976 A 13.381875 13.137235 0 0 0 75.683236 101.90696 z M 76.393787 103.19215 A 13.381875 13.137235 0 0 1 76.394303 103.1937 A 10.206875 10.557548 0 0 1 77.636088 103.31669 A 10.206875 10.557548 0 0 0 77.62782 103.31566 A 10.206875 10.557548 0 0 0 76.393787 103.19215 z M 50.970015 107.12886 A 20.721378 15.412284 0 0 0 41.045557 120.28413 A 20.721378 15.412284 0 0 0 45.367257 129.70526 A 15.432396 13.004944 0 0 1 45.249434 128.10019 A 15.432396 13.004944 0 0 1 53.529032 116.57635 A 13.381875 13.137235 0 0 1 50.87183 108.71946 A 13.381875 13.137235 0 0 1 50.970015 107.12886 z M 85.698128 110.17364 A 10.206875 10.557548 0 0 1 85.698645 110.17467 A 19.467291 18.891924 0 0 1 88.347579 110.62994 A 19.467291 18.891924 0 0 0 85.698128 110.17364 z M 93.565865 119.62319 A 10.240685 9.6373472 0 0 1 103.68876 127.80047 A 13.000243 10.619563 0 0 1 104.13215 127.79427 A 13.000243 10.619563 0 0 1 116.62182 135.46667 L 109.78606 135.46667 L 69.873771 135.46667 A 10.240685 9.6373472 0 0 1 69.810726 134.40058 A 10.240685 9.6373472 0 0 1 80.051444 124.76344 A 10.240685 9.6373472 0 0 1 84.113212 125.55409 A 10.240685 9.6373472 0 0 1 93.565865 119.62319 z M 17.204635 124.68748 A 18.649132 11.447596 0 0 0 0.0056844076 131.70927 L 0.0056844076 135.46822 L 28.71401 135.46822 A 15.432396 13.004944 0 0 1 27.763163 134.19181 A 15.432396 13.004944 0 0 0 28.708325 135.46667 L 6.196521 135.46667 A 9.3052425 8.8889923 0 0 1 12.019938 133.51071 A 9.3052425 8.8889923 0 0 1 14.912785 133.951 A 10.240685 9.6373472 0 0 1 23.818184 129.07171 A 10.240685 9.6373472 0 0 1 25.898678 129.27273 A 15.432396 13.004944 0 0 0 25.929167 129.42104 A 15.432396 13.004944 0 0 1 25.815479 127.88108 A 15.432396 13.004944 0 0 1 25.972575 126.03158 A 18.649132 11.447596 0 0 0 17.204635 124.68748 z M 26.057324 130.04167 A 15.432396 13.004944 0 0 0 26.280566 131.03645 A 15.432396 13.004944 0 0 1 26.057324 130.04167 z M 26.488822 131.60334 A 15.432396 13.004944 0 0 0 26.871745 132.60534 A 15.432396 13.004944 0 0 1 26.488822 131.60334 z M 27.111523 133.04614 A 15.432396 13.004944 0 0 0 27.691333 134.09517 A 15.432396 13.004944 0 0 1 27.111523 133.04614 z " />
    <path
       id="path2-6-13"
       style="opacity:1;fill:url(#linearGradient85);fill-opacity:1;stroke:#14344a;stroke-width:0.5;stroke-dasharray:1, 1, 2, 1, 2.5, 1, 1.5, 1, 0.5, 1, 1.5, 1, 3.5, 1, 1, 1, 3, 1, 3, 1, 4, 1, 2.5, 1, 4.5, 1, 0.5, 1, 0.5, 1;stroke-dashoffset:0;stroke-opacity:1"
       d="m 95.492879,38.13669 c -5.067168,6.3e-5 -9.372417,3.487587 -10.126513,8.203117 -6.811877,2.765278 -11.192467,8.875331 -11.192599,15.61145 -3.7e-5,3.825578 1.420836,7.540955 4.035929,10.553361 -3.057506,2.237359 -4.836933,5.622072 -4.836914,9.200472 1.4e-5,0.978872 0.133505,1.953933 0.397392,2.902666 -5.262136,0.464566 -9.284222,4.621423 -9.284188,9.595279 4.1e-5,0.462405 0.03545,0.924207 0.105937,1.381828 3.671811,0.09275 7.143377,1.663069 9.600964,4.342888 0.893758,0.974459 1.633872,2.074789 2.195732,3.264399 0.415112,0.0151 0.828948,0.0563 1.239201,0.12351 0.05605,0.008 0.112033,0.0161 0.167948,0.0248 3.631452,0.63687 6.649495,3.24808 7.897193,6.83266 3.594767,0.37208 7.011761,1.70821 9.868131,3.85868 -0.439523,-4.99717 -4.877402,-8.84226 -10.205578,-8.84236 -0.03755,-2e-5 -0.0751,1.5e-4 -0.112655,5.2e-4 -0.231367,-1.73973 -1.327156,-3.32915 -3.036507,-4.40438 0.606721,-0.61048 1.126469,-1.29265 1.546159,-2.029334 -2.005619,-2.010931 -3.16053,-4.951648 -3.160531,-8.047571 4e-6,-5.845481 4.037486,-10.584219 9.018054,-10.584367 0.878309,2e-6 1.751908,0.150592 2.593124,0.447001 -0.197156,-0.08515 -0.396723,-0.163733 -0.598414,-0.235644 1.828962,-1.311248 2.865495,-2.924781 2.954859,-4.599719 2.51477,-0.495108 4.65752,-1.873759 5.886467,-3.787366 2.03539,0.721421 4.36897,1.102786 6.7479,1.102775 6.32443,-5.9e-5 11.73635,-2.659612 12.83643,-6.308142 0.19202,-0.490086 0.28883,-0.989541 0.28887,-1.490348 -6e-5,-1.25063 -0.60341,-2.479943 -1.75131,-3.568258 -0.89967,-0.941532 -2.12972,-1.760684 -3.60909,-2.403471 0.81944,-0.474349 1.56266,-1.053854 2.20762,-1.721342 -0.67851,0.654437 -1.45617,1.219157 -2.30993,1.677417 -1.52373,-0.648594 -3.26928,-1.096045 -5.11649,-1.311548 -0.91248,-4.831907 -5.30351,-8.455295 -10.614854,-8.759155 0.608592,-2.694258 2.480674,-5.019191 5.133534,-6.375321 -1.85431,-2.888991 -5.179442,-4.654567 -8.765871,-4.654497 z m -1.927014,81.4865 c -4.134127,1.5e-4 -7.862701,2.33957 -9.452653,5.9309 -1.282441,-0.52153 -2.664712,-0.79059 -4.061768,-0.79065 -5.655701,-2e-5 -10.240596,4.31465 -10.240718,9.63714 6.5e-5,0.35619 0.02111,0.7121 0.06305,1.06609 h 39.912289 6.83576 c -1.60695,-4.54419 -6.69933,-7.67243 -12.48967,-7.6724 -0.14783,1e-5 -0.29565,0.002 -0.44339,0.006 -0.76612,-4.70399 -5.066047,-8.17747 -10.122895,-8.17728 z m -69.747681,9.44852 c -3.685113,6e-5 -7.086021,1.86342 -8.905399,4.87929 -0.9339,-0.29174 -1.910278,-0.44035 -2.892847,-0.44029 -2.1175716,2e-5 -4.1718021,0.69 -5.823417,1.95596 h 22.511804 c -1.555927,-1.82537 -2.523943,-3.95939 -2.809647,-6.19394 -0.684391,-0.13365 -1.381524,-0.20101 -2.080494,-0.20102 z"
       sodipodi:nodetypes="ccccscccccccccscccsccccccccccccccccsccccccscsccccccc" />
    <path
       id="path2-6-13-1"
       style="fill:#6c8089;fill-opacity:1;stroke-width:0.5;stroke:#14344a;stroke-opacity:1;stroke-dasharray:1, 1, 2, 1, 2.5, 1, 1.5, 1, 0.5, 1, 1.5, 1, 3.5, 1, 1, 1, 3, 1, 3, 1, 4, 1, 2.5, 1, 4.5, 1, 0.5, 1, 0.5, 1;stroke-dashoffset:0"
       d="M 89.582646 54.239583 A 6.7680292 6.9915137 0 0 0 82.814583 61.230888 A 6.7680292 6.9915137 0 0 0 85.888298 67.088928 A 8.5208941 9.5050554 0 0 0 83.511698 69.725977 A 8.269927 6.1877923 0 0 1 86.328581 69.355973 A 8.269927 6.1877923 0 0 1 94.598877 75.543709 A 8.269927 6.1877923 0 0 1 94.593709 75.729228 A 9.0289059 7.6067705 0 0 0 100.44607 71.94858 A 13.035348 7.636436 0 0 0 106.5289 73.041536 A 10.240685 9.6373472 0 0 0 108.91842 66.853284 A 10.240685 9.6373472 0 0 0 98.677698 57.216146 A 10.240685 9.6373472 0 0 0 95.431384 57.713273 A 6.7680292 6.9915137 0 0 0 89.582646 54.239583 z M 90.144885 127.06615 A 10.240685 9.6373472 0 0 0 80.74856 132.87199 A 10.240685 9.6373472 0 0 0 77.367887 135.46667 L 109.56644 135.46667 A 10.240685 9.6373472 0 0 0 100.13291 129.57969 A 10.240685 9.6373472 0 0 0 97.422477 129.92334 A 10.240685 9.6373472 0 0 0 90.144885 127.06615 z " />
  </g>
</svg>
