<?xml version="1.0" encoding="UTF-8" standalone="no"?>
<!-- Created with Inkscape (http://www.inkscape.org/) -->

<svg
   width="512"
   height="512"
   viewBox="0 0 135.46667 135.46667"
   version="1.1"
   id="svg5"
   inkscape:version="1.4.2 (f4327f4, 2025-05-13)"
   sodipodi:docname="icon.svg"
   inkscape:export-filename="icon.png"
   inkscape:export-xdpi="96"
   inkscape:export-ydpi="96"
   xmlns:inkscape="http://www.inkscape.org/namespaces/inkscape"
   xmlns:sodipodi="http://sodipodi.sourceforge.net/DTD/sodipodi-0.dtd"
   xmlns:xlink="http://www.w3.org/1999/xlink"
   xmlns="http://www.w3.org/2000/svg"
   xmlns:svg="http://www.w3.org/2000/svg">
  <sodipodi:namedview
     id="namedview7"
     pagecolor="#505050"
     bordercolor="#eeeeee"
     borderopacity="1"
     inkscape:showpageshadow="0"
     inkscape:pageopacity="0"
     inkscape:pagecheckerboard="0"
     inkscape:deskcolor="#505050"
     inkscape:document-units="mm"
     showgrid="false"
     inkscape:zoom="0.5"
     inkscape:cx="-62"
     inkscape:cy="133"
     inkscape:window-width="1920"
     inkscape:window-height="1111"
     inkscape:window-x="935"
     inkscape:window-y="1791"
     inkscape:window-maximized="1"
     inkscape:current-layer="layer1"
     showguides="true">
    <sodipodi:guide
       position="-30.823959,143.80105"
       orientation="1,0"
       id="guide1"
       inkscape:locked="false" />
    <sodipodi:guide
       position="157.69167,111.125"
       orientation="1,0"
       id="guide2"
       inkscape:locked="false" />
  </sodipodi:namedview>
  <defs
     id="defs2">
    <linearGradient
       id="linearGradient7">
      <stop
         style="stop-color:#b4e6e6;stop-opacity:1;"
         offset="0"
         id="stop4" />
      <stop
         style="stop-color:#64c7ee;stop-opacity:1;"
         offset="0.17411765"
         id="stop5" />
      <stop
         style="stop-color:#7a93f2;stop-opacity:1;"
         offset="0.43571383"
         id="stop6" />
      <stop
         style="stop-color:#dd3b3b;stop-opacity:1;"
         offset="0.86432445"
         id="stop7" />
    </linearGradient>
    <linearGradient
       id="linearGradient10105">
      <stop
         style="stop-color:#b4e6e6;stop-opacity:1;"
         offset="0"
         id="stop15315" />
      <stop
         style="stop-color:#64c7ee;stop-opacity:1;"
         offset="0.17411765"
         id="stop13861" />
      <stop
         style="stop-color:#7a93f2;stop-opacity:1;"
         offset="0.43571383"
         id="stop10111" />
      <stop
         style="stop-color:#3b57dd;stop-opacity:1;"
         offset="0.86432445"
         id="stop10115" />
    </linearGradient>
    <linearGradient
       inkscape:collect="always"
       xlink:href="#linearGradient10105"
       id="linearGradient1716"
       x1="67.73333"
       y1="134.80521"
       x2="67.73333"
       y2="0"
       gradientUnits="userSpaceOnUse"
       gradientTransform="translate(4.5224324e-6)" />
  </defs>
  <g
     inkscape:label="Ebene 1"
     inkscape:groupmode="layer"
     id="layer1">
    <path
       id="rect1708"
       style="fill:url(#linearGradient1716);fill-opacity:1;fill-rule:nonzero;stroke-width:0.2;stroke-linecap:round;stroke-linejoin:round;stroke-opacity:0.202073"
       d="M 67.733333 0 A 67.733498 67.733498 0 0 0 0 67.733333 A 67.733498 67.733498 0 0 0 67.520426 135.46667 L 67.946757 135.46667 A 67.733498 67.733498 0 0 0 135.46667 67.946757 L 135.46667 67.520426 A 67.733498 67.733498 0 0 0 67.733333 0 z " />
    <path
       id="rect1708-0"
       style="fill:#ffffff;fill-opacity:1;fill-rule:nonzero;stroke-width:0.2;stroke-linecap:round;stroke-linejoin:round;stroke-opacity:0.202073"
       d="M 87.907812 12.435417 A 13.890625 14.055989 0 0 0 77.915658 16.727661 A 4.960937 4.0348959 0 0 0 75.207812 16.073437 A 4.960937 4.0348959 0 0 0 70.246875 20.108333 A 4.960937 4.0348959 0 0 0 70.584839 21.572327 A 15.378906 15.246614 0 0 0 65.29989 20.643701 A 15.378906 15.246614 0 0 0 59.642871 21.71237 A 14.552083 15.213542 0 0 0 46.500521 13.030729 A 14.552083 15.213542 0 0 0 31.948437 28.244271 A 14.552083 15.213542 0 0 0 38.062793 40.63938 A 16.205729 13.956771 0 0 0 34.991146 48.815625 A 16.205729 13.956771 0 0 0 43.470215 61.084127 A 16.668749 6.647656 0 0 0 37.703125 66.11276 A 16.668749 6.647656 0 0 0 37.927917 67.201066 A 14.783593 12.303124 0 0 0 26.855208 79.110417 A 14.783593 12.303124 0 0 0 27.873751 83.598515 A 16.070114 16.77915 0 0 0 21.933028 96.62511 A 16.070114 16.77915 0 0 0 27.640173 109.44913 A 11.145573 11.773958 0 0 0 25.440824 112.25723 A 13.559896 11.773958 0 0 0 18.45262 114.20078 A 67.733498 67.733498 0 0 0 67.523527 135.46667 L 67.943656 135.46667 A 67.733498 67.733498 0 0 0 118.33076 112.76418 A 11.145573 11.773958 0 0 0 112.35335 110.9276 A 11.145573 11.773958 0 0 0 107.28751 112.21382 A 16.945322 13.738389 0 0 0 93.201029 106.11187 A 16.945322 13.738389 0 0 0 91.777861 106.16045 A 9.447422 5.4517255 0 0 0 88.567721 104.75278 A 9.447422 5.4517255 0 0 0 90.61049 101.5969 A 10.302867 11.046354 0 0 0 98.658061 90.818229 A 10.302867 11.046354 0 0 0 91.604744 80.335665 A 13.614609 7.7668295 0 0 0 94.559603 75.735946 A 9.0289059 7.6067705 0 0 0 100.60936 71.681413 A 13.49375 7.2429686 0 0 0 106.82552 72.495833 A 13.49375 7.2429686 0 0 0 120.31927 65.252865 A 13.49375 7.2429686 0 0 0 114.75889 59.393791 A 10.252604 9.5249996 0 0 0 119.7901 51.196875 A 10.252604 9.5249996 0 0 0 109.5375 41.671875 A 10.252604 9.5249996 0 0 0 105.74187 42.348836 A 12.303124 12.997656 0 0 0 97.989368 36.1611 A 13.890625 14.055989 0 0 0 101.79844 26.491406 A 13.890625 14.055989 0 0 0 87.907812 12.435417 z " />
    <path
       id="rect1708-07"
       style="fill:#dae8f5;fill-opacity:1;fill-rule:nonzero;stroke-width:0.2;stroke-linecap:round;stroke-linejoin:round;stroke-opacity:0.202073"
       d="M 85.054757 23.733952 A 14.392865 9.2960758 0 0 0 70.661837 33.030025 A 14.392865 9.2960758 0 0 0 70.830819 34.452161 A 11.212358 8.5477219 0 0 0 60.833496 29.773893 A 11.212358 8.5477219 0 0 0 49.621261 38.321692 A 11.212358 8.5477219 0 0 0 51.598401 43.168941 A 18.041094 17.247345 0 0 0 48.846114 52.325488 A 18.041094 17.247345 0 0 0 51.855233 61.862891 A 15.08125 10.814843 0 0 1 61.556966 53.44325 A 15.64349 10.682551 0 0 1 60.126562 48.98099 A 15.64349 10.682551 0 0 1 75.770052 38.298437 A 15.64349 10.682551 0 0 1 81.351624 39.001237 A 12.244503 12.278548 0 0 0 71.329496 50.373153 A 12.244503 12.278548 0 0 0 61.513558 62.40756 A 12.244503 12.278548 0 0 0 66.313265 72.155802 A 12.244503 12.278548 0 0 0 65.088534 76.945174 A 14.068618 14.47684 0 0 0 56.246179 90.386214 A 14.068618 14.47684 0 0 0 57.882255 97.162028 A 13.381875 13.137235 0 0 1 64.248275 95.580729 A 13.381875 13.137235 0 0 1 76.388619 103.19215 A 10.206875 10.557548 0 0 1 85.692961 110.17312 A 19.467291 18.891924 0 0 1 97.132056 115.35058 A 16.668751 15.941145 0 0 0 93.794792 115.0276 A 16.668751 15.941145 0 0 0 86.505314 116.63267 A 11.939323 12.270052 0 0 0 74.910156 107.28854 A 11.939323 12.270052 0 0 0 62.970833 119.55859 A 11.939323 12.270052 0 0 0 63.009591 120.54975 A 14.948958 14.915885 0 0 0 56.885417 132.58932 A 14.948958 14.915885 0 0 0 57.02391 134.61504 A 67.733498 67.733498 0 0 0 67.523527 135.46667 L 67.943656 135.46667 A 67.733498 67.733498 0 0 0 118.33076 112.76418 A 11.145573 11.773958 0 0 0 112.35335 110.9276 A 11.145573 11.773958 0 0 0 107.28751 112.21382 A 16.945322 13.738389 0 0 0 93.201029 106.11187 A 16.945322 13.738389 0 0 0 91.777861 106.16045 A 9.447422 5.4517255 0 0 0 88.567721 104.75278 A 9.447422 5.4517255 0 0 0 90.61049 101.5969 A 10.302867 11.046354 0 0 0 98.658061 90.818229 A 10.302867 11.046354 0 0 0 91.604744 80.335665 A 13.614609 7.7668295 0 0 0 94.559603 75.735946 A 9.0289059 7.6067705 0 0 0 100.60936 71.681413 A 13.49375 7.2429686 0 0 0 106.82552 72.495833 A 13.49375 7.2429686 0 0 0 120.31927 65.252865 A 13.49375 7.2429686 0 0 0 114.75889 59.393791 A 10.252604 9.5249996 0 0 0 119.7901 51.196875 A 10.252604 9.5249996 0 0 0 113.21531 42.305945 A 5.8302946 4.654686 0 0 0 107.4322 38.243144 A 5.8302946 4.654686 0 0 0 103.57352 39.407931 A 12.303124 12.997656 0 0 0 98.520085 36.312512 A 14.392865 9.2960758 0 0 0 99.44716 33.030025 A 14.392865 9.2960758 0 0 0 85.054757 23.733952 z M 54.403914 69.819511 A 16.825018 14.066837 0 0 0 46.505172 81.743331 A 16.825018 14.066837 0 0 0 46.522225 82.37275 A 12.241345 7.051012 0 0 0 39.099939 88.854525 A 12.241345 7.051012 0 0 0 41.448116 93.006726 A 14.06546 9.4831648 0 0 0 28.117147 102.47695 A 14.06546 9.4831648 0 0 0 34.120915 110.24805 A 17.666918 12.757216 0 0 0 32.701363 115.25808 A 17.666918 12.757216 0 0 0 32.859493 116.9603 A 15.432396 13.004944 0 0 1 38.84104 115.03277 A 17.490372 11.040512 0 0 1 38.84104 114.99867 A 17.490372 11.040512 0 0 1 44.361633 106.94851 A 8.1359377 7.6729164 0 0 1 43.81438 104.18227 A 8.1359377 7.6729164 0 0 1 50.865629 96.577568 A 14.403408 14.080704 0 0 1 50.324577 92.754545 A 14.403408 14.080704 0 0 1 56.465287 81.220882 A 8.1359377 7.6729164 0 0 1 54.937215 76.744153 A 8.1359377 7.6729164 0 0 1 56.871981 71.777014 A 15.08125 10.814843 0 0 1 54.403914 69.819511 z M 50.964331 107.12731 A 20.721378 15.412284 0 0 0 41.039872 120.28258 A 20.721378 15.412284 0 0 0 45.361572 129.70371 A 15.432396 13.004944 0 0 1 45.24375 128.09864 A 15.432396 13.004944 0 0 1 53.523348 116.5748 A 13.381875 13.137235 0 0 1 50.866146 108.71791 A 13.381875 13.137235 0 0 1 50.964331 107.12731 z " />
    <path
       id="path2-6-13"
       style="fill:#b7d6e9;fill-opacity:1;stroke-width:0.5462"
       d="M 95.492879 38.13669 A 10.240685 9.6373472 0 0 0 85.366366 46.339807 A 18.987082 17.120893 0 0 0 74.173767 61.951257 A 18.987082 17.120893 0 0 0 78.209696 72.504618 A 12.906699 11.788867 0 0 0 73.372782 81.70509 A 12.906699 11.788867 0 0 0 73.770174 84.607756 A 10.240685 9.6373472 0 0 0 64.485986 94.203035 A 10.240685 9.6373472 0 0 0 64.591923 95.584863 A 13.381875 13.137235 0 0 1 74.192887 99.927751 A 13.381875 13.137235 0 0 1 76.388619 103.19215 A 10.206875 10.557548 0 0 1 77.62782 103.31566 A 10.206875 10.557548 0 0 1 77.795768 103.34046 A 10.206875 10.557548 0 0 1 85.692961 110.17312 A 19.467291 18.891924 0 0 1 95.561092 114.0318 A 10.240685 9.6373472 0 0 0 85.355514 105.18944 A 10.240685 9.6373472 0 0 0 85.242859 105.18996 A 7.9956212 6.45684 0 0 0 82.206352 100.78558 A 10.240685 9.6373472 0 0 0 83.752511 98.756246 A 9.0182819 10.584376 0 0 1 80.59198 90.708675 A 9.0182819 10.584376 0 0 1 89.610034 80.124308 A 9.0182819 10.584376 0 0 1 92.203158 80.571309 A 10.302867 11.046354 0 0 0 91.604744 80.335665 A 13.614609 7.7668295 0 0 0 94.559603 75.735946 A 9.0289059 7.6067705 0 0 0 100.44607 71.94858 A 13.035348 7.636436 0 0 0 107.19397 73.051355 A 13.035348 7.636436 0 0 0 120.0304 66.743213 A 13.49375 7.2429686 0 0 0 120.31927 65.252865 A 13.49375 7.2429686 0 0 0 118.56796 61.684607 A 13.035348 7.636436 0 0 0 114.95887 59.281136 A 10.252604 9.5249996 0 0 0 117.16649 57.559794 A 10.548314 9.5105524 0 0 1 114.85656 59.237211 A 13.035348 7.636436 0 0 0 109.74007 57.925663 A 11.497457 10.596462 0 0 0 99.125216 49.166508 A 10.548314 9.5105524 0 0 1 104.25875 42.791187 A 10.240685 9.6373472 0 0 0 95.492879 38.13669 z M 93.565865 119.62319 A 10.240685 9.6373472 0 0 0 84.113212 125.55409 A 10.240685 9.6373472 0 0 0 80.051444 124.76344 A 10.240685 9.6373472 0 0 0 69.810726 134.40058 A 10.240685 9.6373472 0 0 0 69.869637 135.43308 A 67.733498 67.733498 0 0 0 103.018 125.55099 A 10.240685 9.6373472 0 0 0 93.565865 119.62319 z " />
    <path
       id="path2-6-13-1"
       style="fill:#92bbd8;fill-opacity:1;stroke-width:0.5462"
       d="m 89.582646,54.239583 a 6.7680292,6.9915137 0 0 0 -6.768063,6.991305 6.7680292,6.9915137 0 0 0 3.073715,5.85804 8.5208941,9.5050554 0 0 0 -2.3766,2.637049 8.269927,6.1877923 0 0 1 2.816883,-0.370004 8.269927,6.1877923 0 0 1 8.270296,6.187736 8.269927,6.1877923 0 0 1 -0.0052,0.185519 9.0289059,7.6067705 0 0 0 5.852363,-3.780648 13.035348,7.636436 0 0 0 6.08283,1.092956 10.240685,9.6373472 0 0 0 2.38952,-6.188252 10.240685,9.6373472 0 0 0 -10.240724,-9.637138 10.240685,9.6373472 0 0 0 -3.246314,0.497127 6.7680292,6.9915137 0 0 0 -5.848738,-3.47369 z m 0.562239,72.826567 a 10.240685,9.6373472 0 0 0 -9.396325,5.80584 10.240685,9.6373472 0 0 0 -2.621546,1.79266 67.733498,67.733498 0 0 0 18.297075,-5.57434 10.240685,9.6373472 0 0 0 -6.279204,-2.02416 z" />
  </g>
</svg>
